{"accessors" : [{"bufferView" : 0, "byteOffset" : 0, "componentType" : 5123, "count" : 840, "type" : "SCALAR", "max" : [345], "min" : [0]}, {"bufferView" : 1, "byteOffset" : 0, "componentType" : 5126, "count" : 346, "type" : "VEC3", "max" : [1.3295608758926392, 2.5144612789154053, 12.137069702148438], "min" : [-1.4135175943374634, -1.4233760833740234, -5.0620012283325195], "name" : "POSITION"}, {"bufferView" : 1, "byteOffset" : 12, "componentType" : 5126, "count" : 346, "type" : "VEC2", "max" : [0.034612998366355896, 0.6352330446243286], "min" : [0.002873999997973442, 0.49722999334335327], "name" : "TEXCOORD_0"}, {"bufferView" : 0, "byteOffset" : 1680, "componentType" : 5123, "count" : 1896, "type" : "SCALAR", "max" : [577], "min" : [0]}, {"bufferView" : 2, "byteOffset" : 0, "componentType" : 5126, "count" : 578, "type" : "VEC3", "max" : [-0.4722108542919159, 0.75797039270401, -0.6596708297729492], "min" : [-2.1102476119995117, -0.905337929725647, -3.744105339050293], "name" : "POSITION"}, {"bufferView" : 2, "byteOffset" : 12, "componentType" : 5126, "count" : 578, "type" : "VEC2", "max" : [0.2441300004720688, 0.8170030117034912], "min" : [0.0003169999981764704, 0.6117550134658813], "name" : "TEXCOORD_0"}, {"bufferView" : 0, "byteOffset" : 5472, "componentType" : 5123, "count" : 240, "type" : "SCALAR", "max" : [47], "min" : [0]}, {"bufferView" : 3, "byteOffset" : 0, "componentType" : 5126, "count" : 48, "type" : "VEC3", "max" : [1.0000139474868774, 189.5216827392578, 2.950559616088867], "min" : [-1.0000139474868774, -1.5751087665557861, -40.96483612060547], "name" : "POSITION"}, {"bufferView" : 3, "byteOffset" : 12, "componentType" : 5126, "count" : 48, "type" : "VEC2", "max" : [0.2549479901790619, 0.3975819945335388], "min" : [0.10748100280761719, 0.3636080026626587], "name" : "TEXCOORD_0"}, {"bufferView" : 0, "byteOffset" : 5952, "componentType" : 5123, "count" : 8790, "type" : "SCALAR", "max" : [1824], "min" : [0]}, {"bufferView" : 4, "byteOffset" : 0, "componentType" : 5126, "count" : 1825, "type" : "VEC3", "max" : [9.988665580749512, 11.01594352722168, 4.050142288208008], "min" : [-9.988666534423828, -8.110308647155762, -1.0914630889892578], "name" : "POSITION"}, {"bufferView" : 4, "byteOffset" : 12, "componentType" : 5126, "count" : 1825, "type" : "VEC2", "max" : [0.9935910105705261, 0.9989719986915588], "min" : [0.0013719999697059393, 0.008903980255126953], "name" : "TEXCOORD_0"}, {"bufferView" : 0, "byteOffset" : 23532, "componentType" : 5123, "count" : 864, "type" : "SCALAR", "max" : [291], "min" : [0]}, {"bufferView" : 5, "byteOffset" : 0, "componentType" : 5126, "count" : 292, "type" : "VEC3", "max" : [0.9848076701164246, 1, 12.137069702148438], "min" : [-54.07564926147461, -1, -5.062003135681152], "name" : "POSITION"}, {"bufferView" : 5, "byteOffset" : 12, "componentType" : 5126, "count" : 292, "type" : "VEC2", "max" : [0.9940750002861023, 0.5679770112037659], "min" : [0.9807029962539673, 0.4512069821357727], "name" : "TEXCOORD_0"}, {"bufferView" : 0, "byteOffset" : 25260, "componentType" : 5123, "count" : 168, "type" : "SCALAR", "max" : [47], "min" : [0]}, {"bufferView" : 6, "byteOffset" : 0, "componentType" : 5126, "count" : 48, "type" : "VEC3", "max" : [2.04133939743042, 2.765641212463379, 1.4138763049231784E-07], "min" : [-1.4906004667282104, -2.579371452331543, -14.506417274475098], "name" : "POSITION"}, {"bufferView" : 6, "byteOffset" : 12, "componentType" : 5126, "count" : 48, "type" : "VEC2", "max" : [0.9839550256729126, 0.9832689762115479], "min" : [0.8695949912071228, 0.9244589805603027], "name" : "TEXCOORD_0"}, {"bufferView" : 0, "byteOffset" : 25596, "componentType" : 5123, "count" : 264, "type" : "SCALAR", "max" : [127], "min" : [0]}, {"bufferView" : 7, "byteOffset" : 0, "componentType" : 5126, "count" : 128, "type" : "VEC3", "max" : [1.000000238418579, 15.724404335021973, 94.55663299560547], "min" : [-102.65736389160156, -11.522035598754883, -1.0000005960464478], "name" : "POSITION"}, {"bufferView" : 7, "byteOffset" : 12, "componentType" : 5126, "count" : 128, "type" : "VEC2", "max" : [0.4736059904098511, 0.4423369765281677], "min" : [0.3479909896850586, 0.36600399017333984], "name" : "TEXCOORD_0"}, {"bufferView" : 0, "byteOffset" : 26124, "componentType" : 5123, "count" : 7248, "type" : "SCALAR", "max" : [2167], "min" : [0]}, {"bufferView" : 8, "byteOffset" : 0, "componentType" : 5126, "count" : 2168, "type" : "VEC3", "max" : [2.4382238388061523, 1.065614104270935, 1.0000003576278687], "min" : [-2.341496706008911, -1.0656161308288574, -36.36540222167969], "name" : "POSITION"}, {"bufferView" : 8, "byteOffset" : 12, "componentType" : 5126, "count" : 2168, "type" : "VEC2", "max" : [0.9691410064697266, 0.9949219822883606], "min" : [0.0010629999451339245, 0.0004630088806152344], "name" : "TEXCOORD_0"}, {"bufferView" : 0, "byteOffset" : 40620, "componentType" : 5123, "count" : 72, "type" : "SCALAR", "max" : [23], "min" : [0]}, {"bufferView" : 9, "byteOffset" : 0, "componentType" : 5126, "count" : 24, "type" : "VEC3", "max" : [0.04641813412308693, 1.0214064121246338, 0.08906581252813339], "min" : [-1.4546414613723755, -1.456574559211731, -1.0703257322311401], "name" : "POSITION"}, {"bufferView" : 9, "byteOffset" : 12, "componentType" : 5126, "count" : 24, "type" : "VEC2", "max" : [0.06583800166845322, 0.26855897903442383], "min" : [0.009026999585330486, 0.21822601556777954], "name" : "TEXCOORD_0"}, {"bufferView" : 0, "byteOffset" : 40764, "componentType" : 5123, "count" : 2952, "type" : "SCALAR", "max" : [671], "min" : [0]}, {"bufferView" : 10, "byteOffset" : 0, "componentType" : 5126, "count" : 672, "type" : "VEC3", "max" : [-14.237733840942383, 5.8638153076171875, 8.015246391296387], "min" : [-51.97047424316406, 3.8994274139404297, 0.9290146827697754], "name" : "POSITION"}, {"bufferView" : 10, "byteOffset" : 12, "componentType" : 5126, "count" : 672, "type" : "VEC2", "max" : [0.9097920060157776, 0.25670599937438965], "min" : [0.6040700078010559, 0.2329549789428711], "name" : "TEXCOORD_0"}, {"bufferView" : 0, "byteOffset" : 46668, "componentType" : 5123, "count" : 5136, "type" : "SCALAR", "max" : [1861], "min" : [0]}, {"bufferView" : 11, "byteOffset" : 0, "componentType" : 5126, "count" : 1862, "type" : "VEC3", "max" : [1.0190402269363403, 1.10262131690979, 1.1815247535705566], "min" : [-11.105506896972656, -1.019040584564209, -4.962456703186035], "name" : "POSITION"}, {"bufferView" : 11, "byteOffset" : 12, "componentType" : 5126, "count" : 1862, "type" : "VEC2", "max" : [0.9958540201187134, 0.9974979758262634], "min" : [0.20703299343585968, 0.20884299278259277], "name" : "TEXCOORD_0"}], "asset" : {"generator" : "Aspose.3D 24.2.0", "version" : "2.0"}, "buffers" : [{"uri" : "buffer.bin", "byteLength" : 216808}], "bufferViews" : [{"buffer" : 0, "byteOffset" : 0, "byteLength" : 56940, "target" : 34963}, {"buffer" : 0, "byteOffset" : 56944, "byteLength" : 6920, "byteStride" : 20, "target" : 34962}, {"buffer" : 0, "byteOffset" : 63868, "byteLength" : 11560, "byteStride" : 20, "target" : 34962}, {"buffer" : 0, "byteOffset" : 75432, "byteLength" : 960, "byteStride" : 20, "target" : 34962}, {"buffer" : 0, "byteOffset" : 76396, "byteLength" : 36500, "byteStride" : 20, "target" : 34962}, {"buffer" : 0, "byteOffset" : 112900, "byteLength" : 5840, "byteStride" : 20, "target" : 34962}, {"buffer" : 0, "byteOffset" : 118744, "byteLength" : 960, "byteStride" : 20, "target" : 34962}, {"buffer" : 0, "byteOffset" : 119708, "byteLength" : 2560, "byteStride" : 20, "target" : 34962}, {"buffer" : 0, "byteOffset" : 122272, "byteLength" : 43360, "byteStride" : 20, "target" : 34962}, {"buffer" : 0, "byteOffset" : 165636, "byteLength" : 480, "byteStride" : 20, "target" : 34962}, {"buffer" : 0, "byteOffset" : 166120, "byteLength" : 13440, "byteStride" : 20, "target" : 34962}, {"buffer" : 0, "byteOffset" : 179564, "byteLength" : 37240, "byteStride" : 20, "target" : 34962}], "images" : [{"uri" : "texture.png"}], "materials" : [{"name" : "texturetextu", "pbrMetallicRoughness" : {"baseColorFactor" : [1, 1, 1, 1], "baseColorTexture" : {"index" : 0, "texCoord" : 0}, "metallicFactor" : 1, "roughnessFactor" : 1}, "emissiveFactor" : [0, 0, 0], "alphaMode" : "OPAQUE", "doubleSided" : false}, {"name" : "texturetextu", "pbrMetallicRoughness" : {"baseColorFactor" : [1, 1, 1, 1], "baseColorTexture" : {"index" : 0, "texCoord" : 0}, "metallicFactor" : 1, "roughnessFactor" : 1}, "emissiveFactor" : [0, 0, 0], "alphaMode" : "OPAQUE", "doubleSided" : false}, {"name" : "texturetextu", "pbrMetallicRoughness" : {"baseColorFactor" : [1, 1, 1, 1], "baseColorTexture" : {"index" : 0, "texCoord" : 0}, "metallicFactor" : 1, "roughnessFactor" : 1}, "emissiveFactor" : [0, 0, 0], "alphaMode" : "OPAQUE", "doubleSided" : false}, {"name" : "texturetextu", "pbrMetallicRoughness" : {"baseColorFactor" : [1, 1, 1, 1], "baseColorTexture" : {"index" : 0, "texCoord" : 0}, "metallicFactor" : 1, "roughnessFactor" : 1}, "emissiveFactor" : [0, 0, 0], "alphaMode" : "OPAQUE", "doubleSided" : false}, {"name" : "Nonetexture.", "pbrMetallicRoughness" : {"baseColorFactor" : [0.8, 0.8, 0.8, 1], "metallicFactor" : 1, "roughnessFactor" : 1}, "emissiveFactor" : [0, 0, 0], "alphaMode" : "OPAQUE", "doubleSided" : false}, {"name" : "Nonetexture.", "pbrMetallicRoughness" : {"baseColorFactor" : [0.8, 0.8, 0.8, 1], "metallicFactor" : 1, "roughnessFactor" : 1}, "emissiveFactor" : [0, 0, 0], "alphaMode" : "OPAQUE", "doubleSided" : false}, {"name" : "texturetextu", "pbrMetallicRoughness" : {"baseColorFactor" : [1, 1, 1, 1], "baseColorTexture" : {"index" : 0, "texCoord" : 0}, "metallicFactor" : 1, "roughnessFactor" : 1}, "emissiveFactor" : [0, 0, 0], "alphaMode" : "OPAQUE", "doubleSided" : false}, {"name" : "texturetextu", "pbrMetallicRoughness" : {"baseColorFactor" : [1, 1, 1, 1], "baseColorTexture" : {"index" : 0, "texCoord" : 0}, "metallicFactor" : 1, "roughnessFactor" : 1}, "emissiveFactor" : [0, 0, 0], "alphaMode" : "OPAQUE", "doubleSided" : false}, {"name" : "texturetextu", "pbrMetallicRoughness" : {"baseColorFactor" : [1, 1, 1, 1], "baseColorTexture" : {"index" : 0, "texCoord" : 0}, "metallicFactor" : 1, "roughnessFactor" : 1}, "emissiveFactor" : [0, 0, 0], "alphaMode" : "OPAQUE", "doubleSided" : false}, {"name" : "texturetextu", "pbrMetallicRoughness" : {"baseColorFactor" : [1, 1, 1, 1], "baseColorTexture" : {"index" : 0, "texCoord" : 0}, "metallicFactor" : 1, "roughnessFactor" : 1}, "emissiveFactor" : [0, 0, 0], "alphaMode" : "OPAQUE", "doubleSided" : false}, {"name" : "texturetextu", "pbrMetallicRoughness" : {"baseColorFactor" : [1, 1, 1, 1], "baseColorTexture" : {"index" : 0, "texCoord" : 0}, "metallicFactor" : 1, "roughnessFactor" : 1}, "emissiveFactor" : [0, 0, 0], "alphaMode" : "OPAQUE", "doubleSided" : false}], "meshes" : [{"primitives" : [{"attributes" : {"POSITION" : 1, "TEXCOORD_0" : 2}, "indices" : 0, "material" : 0, "mode" : 4}], "name" : "gear_1.001"}, {"primitives" : [{"attributes" : {"POSITION" : 4, "TEXCOORD_0" : 5}, "indices" : 3, "material" : 1, "mode" : 4}], "name" : "wheel.001"}, {"primitives" : [{"attributes" : {"POSITION" : 7, "TEXCOORD_0" : 8}, "indices" : 6, "material" : 2, "mode" : 4}], "name" : "antenna"}, {"primitives" : [{"attributes" : {"POSITION" : 10, "TEXCOORD_0" : 11}, "indices" : 9, "material" : 3, "mode" : 4}], "name" : "fuselage"}, {"primitives" : [{"attributes" : {"POSITION" : 13, "TEXCOORD_0" : 14}, "indices" : 12, "material" : 4, "mode" : 4}], "name" : "gear_1"}, {"primitives" : [{"attributes" : {"POSITION" : 16, "TEXCOORD_0" : 17}, "indices" : 15, "material" : 5, "mode" : 4}], "name" : "box_2"}, {"primitives" : [{"attributes" : {"POSITION" : 19, "TEXCOORD_0" : 20}, "indices" : 18, "material" : 6, "mode" : 4}], "name" : "hydraolic"}, {"primitives" : [{"attributes" : {"POSITION" : 22, "TEXCOORD_0" : 23}, "indices" : 21, "material" : 7, "mode" : 4}], "name" : "wheel"}, {"primitives" : [{"attributes" : {"POSITION" : 25, "TEXCOORD_0" : 26}, "indices" : 24, "material" : 8, "mode" : 4}], "name" : "box_1"}, {"primitives" : [{"attributes" : {"POSITION" : 28, "TEXCOORD_0" : 29}, "indices" : 27, "material" : 9, "mode" : 4}], "name" : "aileron"}, {"primitives" : [{"attributes" : {"POSITION" : 31, "TEXCOORD_0" : 32}, "indices" : 30, "material" : 10, "mode" : 4}], "name" : "engine"}], "nodes" : [{"mesh" : 0, "name" : "gear_1.001"}, {"mesh" : 1, "name" : "wheel.001"}, {"mesh" : 2, "name" : "antenna"}, {"mesh" : 3, "name" : "fuselage"}, {"mesh" : 4, "name" : "gear_1"}, {"mesh" : 5, "name" : "box_2"}, {"mesh" : 6, "name" : "hydraolic"}, {"mesh" : 7, "name" : "wheel"}, {"mesh" : 8, "name" : "box_1"}, {"mesh" : 9, "name" : "aileron"}, {"mesh" : 10, "name" : "engine"}], "samplers" : [{"magFilter" : 9729, "minFilter" : 9729, "wrapS" : 10497, "wrapT" : 10497}], "scene" : 0, "scenes" : [{"nodes" : [0, 1, 2, 3, 4, 5, 6, 7, 8, 9, 10]}], "textures" : [{"sampler" : 0, "source" : 0, "name" : ""}]}